<svg xmlns="http://www.w3.org/2000/svg" id="Layer_1" data-name="Layer 1" viewBox="0 0 492 269"><defs><style>.cls-1{fill:#cde4f0;}.cls-2{opacity:0.5;}.cls-3{fill:#fff;}</style></defs><rect id="Rectangle_166" data-name="Rectangle 166" class="cls-1" x="-0.29" y="-0.45" width="492" height="269"/><g id="Group_290" data-name="Group 290" class="cls-2"><path id="Path_1024" data-name="Path 1024" class="cls-3" d="M331.48,15.42a7.54,7.54,0,0,0,11.61-1.36L452.37,76.87l.95,56.5a7.61,7.61,0,1,0,1.64,0L454,77.82l39.73,22.83a7.56,7.56,0,1,0,4.84-4.12L484.25-63a7.61,7.61,0,0,0,6-8.95,7.6,7.6,0,0,0-8.94-6,7.61,7.61,0,0,0-6,8.94,7.61,7.61,0,0,0,7.32,6.15L497,97.16a7.26,7.26,0,0,0-2.42,2.09L454,75.91l-1-58.86a7.56,7.56,0,1,0-8.47-8.19l-100.25,1.7a7.56,7.56,0,1,0-12.79,4.86ZM444.55,10.5a7.54,7.54,0,0,0,6.8,6.58l1,57.88L343.82,12.59l.12-.39Z"/><circle id="Ellipse_43" data-name="Ellipse 43" class="cls-3" cx="418.62" cy="99.65" r="4.32"/><circle id="Ellipse_44" data-name="Ellipse 44" class="cls-3" cx="397.41" cy="60.81" r="1.53"/><circle id="Ellipse_45" data-name="Ellipse 45" class="cls-3" cx="470.47" cy="71.44" r="1.53"/><circle id="Ellipse_46" data-name="Ellipse 46" class="cls-3" cx="487.88" cy="140.14" r="3.91"/></g><g id="Group_291" data-name="Group 291" class="cls-2"><path id="Path_1024-2" data-name="Path 1024-2" class="cls-3" d="M60.1,71.79a7.56,7.56,0,0,0-4.18,9.84,8.34,8.34,0,0,0,.7,1.32L-45.16,157.28l-52-22.08a7.56,7.56,0,0,0-5.06-9.43,7.56,7.56,0,0,0-9.43,5.06,7.58,7.58,0,0,0,5.06,9.43,7.58,7.58,0,0,0,8.79-3.56l51.13,21.7-37,27a7.55,7.55,0,0,0-10.67-.69,7.55,7.55,0,0,0-.69,10.67,7.55,7.55,0,0,0,10.67.69,7.62,7.62,0,0,0,2.49-4.57L69.67,243.24a7.65,7.65,0,1,0,.54-1.55L-81.85,189.83a7.31,7.31,0,0,0-.92-3.06l37.82-27.62,54.19,23a7.56,7.56,0,1,0,10.93-4.42L59.34,85.45a7.56,7.56,0,1,0,.76-13.66ZM18.66,177.1a7.55,7.55,0,0,0-8.78,3.55L-43.41,158,57.67,84.21l.3.27Z"/><circle id="Ellipse_41-2" data-name="Ellipse 41-2" class="cls-3" cx="50.11" cy="146.54" r="3.78"/><path id="Path_1025-2" data-name="Path 1025-2" class="cls-3" d="M64.87,110.19A2.39,2.39,0,1,0,68,108.93a2.38,2.38,0,0,0-3.13,1.26Z"/></g></svg>
