<svg width="20" height="20" viewBox="0 0 20 20" fill="none" xmlns="http://www.w3.org/2000/svg">
<path d="M18.0827 10C18.0827 14.464 14.464 18.0827 10 18.0827C5.53605 18.0827 1.91729 14.464 1.91729 10C1.91729 5.53605 5.53604 1.9173 10 1.9173C14.464 1.9173 18.0827 5.53605 18.0827 10Z" fill="currentColor"/>
<path d="M5.75015 10.7498C5.4793 10.4787 5.47931 10.0395 5.75015 9.76837C6.02138 9.49714 6.46135 9.49714 6.73258 9.76837L8.5734 11.6102L13.2677 6.91681C13.539 6.64562 13.9789 6.64559 14.2502 6.91681C14.5208 7.18792 14.5208 7.62713 14.2502 7.89825L9.06461 13.0838C8.79337 13.3549 8.35337 13.355 8.08219 13.0838C8.07909 13.0807 8.07643 13.0772 8.0734 13.074L5.75015 10.7498Z" fill="white"/>
</svg>
