<svg width="39" height="48" viewBox="0 0 39 48" fill="none" xmlns="http://www.w3.org/2000/svg">
<g clip-path="url(#clip0_2193_4794)">
<path d="M32.214 3.1516H6.0497C4.61808 3.1516 3.45752 4.30807 3.45752 5.73466V38.3679C3.45752 39.7945 4.61808 40.951 6.0497 40.951H32.214C33.6456 40.951 34.8061 39.7945 34.8061 38.3679V5.73466C34.8061 4.30807 33.6456 3.1516 32.214 3.1516Z" fill="white"/>
<path d="M2.16866 23.6368L1.43787 24.365L22.6352 45.4878L23.366 44.7596L2.16866 23.6368Z" fill="#051F6B"/>
<path d="M2.618 9.82164L1.88721 10.5499L33.6011 42.1522L34.3319 41.424L2.618 9.82164Z" fill="#051F6B"/>
<path d="M35.5063 17.1228L3.11523 45.6762L3.80001 46.4476L36.191 17.8942L35.5063 17.1228Z" fill="#051F6B"/>
<path d="M35.1116 5.46789L0.541504 35.9422L1.22628 36.7135L35.7964 6.23925L35.1116 5.46789Z" fill="#051F6B"/>
<path d="M34.4528 0.333111H3.81085C2.8795 0.333111 1.9863 0.701786 1.32773 1.35803C0.669171 2.01428 0.299194 2.90434 0.299194 3.83241V44.1694C0.299199 44.629 0.390034 45.084 0.566513 45.5086C0.742993 45.9331 1.00166 46.3189 1.32775 46.6438C1.65383 46.9687 2.04095 47.2265 2.46701 47.4023C2.89306 47.5782 3.34969 47.6687 3.81085 47.6687H34.4528C34.9139 47.6687 35.3706 47.5782 35.7966 47.4023C36.2227 47.2265 36.6098 46.9687 36.9359 46.6438C37.262 46.3189 37.5206 45.9331 37.6971 45.5086C37.8736 45.084 37.9644 44.629 37.9644 44.1694V3.83241C37.9644 2.90434 37.5945 2.01428 36.9359 1.35803C36.2773 0.701786 35.3841 0.333111 34.4528 0.333111ZM34.8061 37.4531C34.8061 37.9126 34.7153 38.3677 34.5388 38.7922C34.3623 39.2168 34.1037 39.6025 33.7776 39.9275C33.4515 40.2524 33.0644 40.5101 32.6383 40.686C32.2123 40.8618 31.7557 40.9523 31.2945 40.9523H6.96915C6.508 40.9523 6.05136 40.8618 5.62531 40.686C5.19926 40.5101 4.81214 40.2524 4.48606 39.9275C4.15997 39.6025 3.9013 39.2168 3.72482 38.7922C3.54834 38.3677 3.45751 37.9126 3.4575 37.4531V6.65221C3.4575 5.72414 3.82748 4.83407 4.48604 4.17782C5.1446 3.52157 6.0378 3.15289 6.96915 3.15288H31.2945C32.2259 3.1529 33.119 3.52158 33.7776 4.17783C34.4362 4.83408 34.8061 5.72414 34.8061 6.65221V37.4531Z" fill="white"/>
<path d="M34.4528 48H3.81084C2.79144 47.9989 1.81412 47.5948 1.09329 46.8765C0.372454 46.1583 -0.0330198 45.1844 -0.0341797 44.1686V3.83153C-0.0330287 2.81571 0.372439 1.84181 1.09327 1.12351C1.8141 0.405206 2.79143 0.00115575 3.81084 0L34.4528 0C35.4722 0.00110282 36.4496 0.40513 37.1705 1.12344C37.8914 1.84175 38.2969 2.81567 38.298 3.83153V44.1686C38.2968 45.1844 37.8913 46.1583 37.1705 46.8766C36.4496 47.5949 35.4722 47.9989 34.4528 48ZM3.81084 0.664433C2.96821 0.665386 2.16036 0.999369 1.56453 1.59311C0.968699 2.18685 0.633546 2.99186 0.632599 3.83153V44.1686C0.633564 45.0082 0.968726 45.8132 1.56456 46.4069C2.16038 47.0007 2.96822 47.3346 3.81084 47.3356H34.4528C35.2954 47.3346 36.1032 47.0007 36.6991 46.4069C37.2949 45.8132 37.6301 45.0082 37.6311 44.1686V3.83153C37.6301 2.99186 37.2949 2.18685 36.6991 1.59311C36.1033 0.999368 35.2954 0.665386 34.4528 0.664433H3.81084ZM31.2945 41.2836H6.96915C5.94978 41.2824 4.9725 40.8783 4.2517 40.1601C3.53091 39.4418 3.12546 38.4679 3.1243 37.4521V6.65133C3.12544 5.63553 3.53088 4.66166 4.25168 3.94336C4.97247 3.22506 5.94977 2.82099 6.96915 2.8198H31.2945C32.3139 2.82096 33.2913 3.22501 34.0121 3.94331C34.7329 4.66161 35.1384 5.63551 35.1395 6.65133V37.4521C35.1384 38.4679 34.7329 39.4418 34.0121 40.1601C33.2912 40.8784 32.3139 41.2824 31.2945 41.2836ZM6.96915 3.48423C6.12652 3.48519 5.31867 3.81917 4.72284 4.41291C4.12701 5.00665 3.79185 5.81166 3.79091 6.65133V37.4521C3.79186 38.2918 4.12702 39.0968 4.72285 39.6905C5.31869 40.2842 6.12653 40.6182 6.96915 40.6191H31.2945C32.1371 40.6182 32.945 40.2842 33.5408 39.6905C34.1366 39.0968 34.4718 38.2918 34.4727 37.4521V6.65133C34.4718 5.81167 34.1366 5.00665 33.5408 4.41291C32.945 3.81917 32.1371 3.48519 31.2945 3.48423H6.96915Z" fill="#051F6B"/>
<path d="M19.4009 46.3281C20.3493 46.3281 21.1181 45.5619 21.1181 44.6168C21.1181 43.6717 20.3493 42.9056 19.4009 42.9056C18.4524 42.9056 17.6836 43.6717 17.6836 44.6168C17.6836 45.5619 18.4524 46.3281 19.4009 46.3281Z" fill="#12AFD7"/>
<path d="M15.0721 22.8188C10.3941 16.061 9.52588 15.3674 9.52588 12.8839C9.52588 9.4819 12.2934 6.72407 15.7074 6.72407C19.1214 6.72407 21.889 9.4819 21.889 12.8839C21.889 15.3674 21.0206 16.061 16.3428 22.8188C16.2716 22.921 16.1767 23.0046 16.0661 23.0623C15.9554 23.12 15.8324 23.1502 15.7075 23.1502C15.5826 23.1502 15.4596 23.12 15.349 23.0623C15.2384 23.0046 15.1434 22.921 15.0723 22.8188H15.0721ZM15.7073 15.4504C16.2168 15.4504 16.7147 15.2999 17.1383 15.0179C17.5619 14.7358 17.892 14.335 18.087 13.866C18.2819 13.397 18.3329 12.8809 18.2336 12.383C18.1342 11.8852 17.8889 11.4278 17.5286 11.0689C17.1684 10.7099 16.7095 10.4655 16.2098 10.3664C15.7102 10.2674 15.1923 10.3182 14.7216 10.5125C14.251 10.7067 13.8487 11.0357 13.5657 11.4578C13.2827 11.8799 13.1316 12.3761 13.1316 12.8838C13.1316 13.2208 13.1982 13.5546 13.3277 13.866C13.4571 14.1774 13.6468 14.4603 13.886 14.6987C14.1252 14.937 14.4091 15.1261 14.7216 15.2551C15.0341 15.384 15.3691 15.4504 15.7073 15.4504Z" fill="#12AFD7"/>
</g>
<defs>
<clipPath id="clip0_2193_4794">
<rect width="38.2979" height="48" fill="white"/>
</clipPath>
</defs>
</svg>
