<svg width="82" height="48" viewBox="0 0 82 48" fill="none" xmlns="http://www.w3.org/2000/svg">
<g clip-path="url(#clip0_2193_5917)">
<path d="M63.5151 0.512451H3.71567C1.90195 0.512451 0.431641 1.97955 0.431641 3.78931V40.0609C0.431641 41.8706 1.90195 43.3377 3.71567 43.3377H63.5151C65.3289 43.3377 66.7992 41.8706 66.7992 40.0609V3.78931C66.7992 1.97955 65.3289 0.512451 63.5151 0.512451Z" fill="white"/>
<path d="M63.7186 43.7667H3.51187C1.57232 43.7667 0 42.1978 0 40.2625V3.58452C0 1.64921 1.57232 0.0803223 3.51187 0.0803223H63.7186C65.6582 0.0803223 67.2305 1.64921 67.2305 3.58452V40.2625C67.2305 42.1978 65.6582 43.7667 63.7186 43.7667ZM3.51187 0.941389C2.04891 0.941389 0.862951 2.12476 0.862951 3.58452V40.2625C0.862951 41.7223 2.04891 42.9057 3.51187 42.9057H63.7186C65.1816 42.9057 66.3675 41.7223 66.3675 40.2625V3.58452C66.3675 2.12476 65.1816 0.941389 63.7186 0.941389H3.51187Z" fill="#051F6B"/>
<path d="M80.683 35.7214L78.5566 34.9716C78.6765 33.654 78.5584 32.3498 78.2251 31.1059L79.9558 30.2835C80.2307 30.1526 80.3468 29.8232 80.2156 29.5488L78.3438 25.6461C78.2126 25.3717 77.8824 25.2559 77.6075 25.3868L75.5814 26.3549C75.0049 25.7432 74.3593 25.1917 73.647 24.7168L74.4264 22.5158C74.5267 22.2275 74.3754 21.9129 74.0865 21.8128L70.0018 20.373C69.713 20.2696 69.3977 20.4206 69.2974 20.7088L68.5221 22.8971C67.4281 22.7892 66.3392 22.8502 65.2891 23.0596L64.1312 20.6366C63.9967 20.3619 63.6699 20.2463 63.3916 20.377L59.4839 22.2417C59.2088 22.3726 59.0928 22.7021 59.224 22.9765L60.3735 25.3795C59.5388 26.0633 58.7998 26.8733 58.1866 27.7921L56.0347 27.0342C55.7457 26.9341 55.4304 27.085 55.3303 27.3702L53.8871 31.4492C53.7838 31.734 53.935 32.0487 54.2237 32.1521L56.3662 32.9061C56.2604 34.0108 56.3206 35.1103 56.5362 36.1681L54.1513 37.307C53.8763 37.4379 53.7602 37.7673 53.8914 38.0416L55.76 41.9441C55.8912 42.2186 56.2213 42.3343 56.4964 42.2034L58.8846 41.0648C59.5765 41.8949 60.3916 42.6325 61.3223 43.2418L60.4313 45.753C60.3312 46.0381 60.4826 46.3527 60.7713 46.4561L64.856 47.8959C65.145 47.9961 65.4603 47.8451 65.5604 47.5601L66.4555 45.036C67.4207 45.1258 68.385 45.0825 69.318 44.9237L70.4876 47.367C70.6221 47.6416 70.9489 47.7571 71.2272 47.6265L75.1349 45.7618C75.41 45.6309 75.526 45.3015 75.3949 45.027L74.2995 42.7378C75.2447 42.003 76.0796 41.1183 76.7551 40.0933L78.8691 40.8359C79.1578 40.9391 79.4731 40.7882 79.5767 40.5001L81.0196 36.4243C81.12 36.1359 80.9688 35.8213 80.683 35.7214ZM72.4523 35.7221C71.4805 38.4744 68.4549 39.9177 65.6935 38.9445C62.9353 37.9747 61.4888 34.9558 62.464 32.2038C63.4391 29.4517 66.4647 28.0085 69.2195 28.9812C71.9807 29.9544 73.4272 32.9734 72.4523 35.7221Z" fill="#12AFD7"/>
<path d="M72.4523 35.723C71.4804 38.4752 68.4548 39.9185 65.6935 38.9453C62.9353 37.9756 61.4888 34.9566 62.4639 32.2046C63.4391 29.4526 66.4646 28.0093 69.2194 28.9821C71.9807 29.9553 73.4272 32.9742 72.4523 35.723Z" fill="white"/>
<path d="M66.3673 9.20898H0.858887V18.3858H66.3673V9.20898Z" fill="#12AFD7"/>
<path d="M13.2187 30.0232H5.61158C5.17255 30.0232 4.81665 30.3783 4.81665 30.8164V38.4069C4.81665 38.8449 5.17255 39.2001 5.61158 39.2001H13.2187C13.6577 39.2001 14.0136 38.8449 14.0136 38.4069V30.8164C14.0136 30.3783 13.6577 30.0232 13.2187 30.0232Z" fill="#12AFD7"/>
</g>
<defs>
<clipPath id="clip0_2193_5917">
<rect width="81.1915" height="48" fill="white"/>
</clipPath>
</defs>
</svg>
